<mxfile host="Electron" modified="2024-05-14T07:54:07.836Z" agent="Mozilla/5.0 (Windows NT 10.0; Win64; x64) AppleWebKit/537.36 (KHTML, like Gecko) draw.io/24.2.5 Chrome/120.0.6099.109 Electron/28.1.0 Safari/537.36" etag="zgmWQ3_SVQSXVuw5Vc1p" version="24.2.5" type="device">
  <diagram name="Сторінка-1" id="-LKgopSln30AEPHEruXR">
    <mxGraphModel dx="2117" dy="629" grid="1" gridSize="10" guides="1" tooltips="1" connect="1" arrows="1" fold="1" page="1" pageScale="1" pageWidth="827" pageHeight="1169" math="0" shadow="0">
      <root>
        <mxCell id="0" />
        <mxCell id="1" parent="0" />
        <mxCell id="3Lb0dM-MbCXQ2RGb6Wp2-1" value="" style="ellipse;html=1;shape=startState;fillColor=#000000;strokeColor=#ff0000;" parent="1" vertex="1">
          <mxGeometry x="60" y="40" width="30" height="30" as="geometry" />
        </mxCell>
        <mxCell id="3Lb0dM-MbCXQ2RGb6Wp2-2" value="" style="edgeStyle=orthogonalEdgeStyle;html=1;verticalAlign=bottom;endArrow=open;endSize=8;strokeColor=#ff0000;rounded=0;" parent="1" source="3Lb0dM-MbCXQ2RGb6Wp2-1" edge="1">
          <mxGeometry relative="1" as="geometry">
            <mxPoint x="75" y="130" as="targetPoint" />
          </mxGeometry>
        </mxCell>
        <mxCell id="3Lb0dM-MbCXQ2RGb6Wp2-3" value="Вхід до адміністративного інтерфейсу" style="text;whiteSpace=wrap;html=1;" parent="1" vertex="1">
          <mxGeometry x="-50" y="50" width="100" height="50" as="geometry" />
        </mxCell>
        <mxCell id="3Lb0dM-MbCXQ2RGb6Wp2-4" value="Вибір розділу адміністрування" style="rounded=1;whiteSpace=wrap;html=1;arcSize=40;fontColor=#000000;fillColor=#ffffc0;strokeColor=#ff0000;" parent="1" vertex="1">
          <mxGeometry x="15" y="130" width="120" height="40" as="geometry" />
        </mxCell>
        <mxCell id="3Lb0dM-MbCXQ2RGb6Wp2-5" value="" style="edgeStyle=orthogonalEdgeStyle;html=1;verticalAlign=bottom;endArrow=open;endSize=8;strokeColor=#ff0000;rounded=0;" parent="1" source="3Lb0dM-MbCXQ2RGb6Wp2-4" edge="1" target="3Lb0dM-MbCXQ2RGb6Wp2-39">
          <mxGeometry relative="1" as="geometry">
            <mxPoint x="75" y="230" as="targetPoint" />
          </mxGeometry>
        </mxCell>
        <mxCell id="3Lb0dM-MbCXQ2RGb6Wp2-8" value="" style="shape=line;html=1;strokeWidth=6;strokeColor=#ff0000;" parent="1" vertex="1">
          <mxGeometry x="-180" y="415" width="550" height="10" as="geometry" />
        </mxCell>
        <mxCell id="3Lb0dM-MbCXQ2RGb6Wp2-10" value="Управління користувачами" style="rounded=1;whiteSpace=wrap;html=1;arcSize=40;fontColor=#000000;fillColor=#ffffc0;strokeColor=#ff0000;" parent="1" vertex="1">
          <mxGeometry x="-40" y="525" width="120" height="40" as="geometry" />
        </mxCell>
        <mxCell id="3Lb0dM-MbCXQ2RGb6Wp2-12" value="Управління тестами" style="rounded=1;whiteSpace=wrap;html=1;arcSize=40;fontColor=#000000;fillColor=#ffffc0;strokeColor=#ff0000;" parent="1" vertex="1">
          <mxGeometry x="270" y="525" width="120" height="40" as="geometry" />
        </mxCell>
        <mxCell id="3Lb0dM-MbCXQ2RGb6Wp2-14" value="Управління навчальними матеріалами" style="rounded=1;whiteSpace=wrap;html=1;arcSize=40;fontColor=#000000;fillColor=#ffffc0;strokeColor=#ff0000;" parent="1" vertex="1">
          <mxGeometry x="450" y="400" width="120" height="40" as="geometry" />
        </mxCell>
        <mxCell id="3Lb0dM-MbCXQ2RGb6Wp2-16" value="Налаштування платформи" style="rounded=1;whiteSpace=wrap;html=1;arcSize=40;fontColor=#000000;fillColor=#ffffc0;strokeColor=#ff0000;" parent="1" vertex="1">
          <mxGeometry x="-190" y="525" width="120" height="40" as="geometry" />
        </mxCell>
        <mxCell id="3Lb0dM-MbCXQ2RGb6Wp2-18" value="Моніторинг та аналітика" style="rounded=1;whiteSpace=wrap;html=1;arcSize=40;fontColor=#000000;fillColor=#ffffc0;strokeColor=#ff0000;" parent="1" vertex="1">
          <mxGeometry x="120" y="525" width="120" height="40" as="geometry" />
        </mxCell>
        <mxCell id="3Lb0dM-MbCXQ2RGb6Wp2-20" value="Спілкування з користувачами" style="rounded=1;whiteSpace=wrap;html=1;arcSize=40;fontColor=#000000;fillColor=#ffffc0;strokeColor=#ff0000;" parent="1" vertex="1">
          <mxGeometry x="-360" y="400" width="120" height="40" as="geometry" />
        </mxCell>
        <mxCell id="3Lb0dM-MbCXQ2RGb6Wp2-28" value="" style="edgeStyle=orthogonalEdgeStyle;html=1;verticalAlign=bottom;endArrow=open;endSize=8;strokeColor=#ff0000;rounded=0;" parent="1" edge="1">
          <mxGeometry relative="1" as="geometry">
            <mxPoint x="-130.5" y="525" as="targetPoint" />
            <mxPoint x="-130" y="425" as="sourcePoint" />
          </mxGeometry>
        </mxCell>
        <mxCell id="3Lb0dM-MbCXQ2RGb6Wp2-29" value="" style="edgeStyle=orthogonalEdgeStyle;html=1;verticalAlign=bottom;endArrow=open;endSize=8;strokeColor=#ff0000;rounded=0;" parent="1" edge="1">
          <mxGeometry relative="1" as="geometry">
            <mxPoint x="15.5" y="525" as="targetPoint" />
            <mxPoint x="15" y="425" as="sourcePoint" />
          </mxGeometry>
        </mxCell>
        <mxCell id="3Lb0dM-MbCXQ2RGb6Wp2-30" value="" style="edgeStyle=orthogonalEdgeStyle;html=1;verticalAlign=bottom;endArrow=open;endSize=8;strokeColor=#ff0000;rounded=0;" parent="1" edge="1">
          <mxGeometry relative="1" as="geometry">
            <mxPoint x="180" y="525" as="targetPoint" />
            <mxPoint x="179.5" y="425" as="sourcePoint" />
          </mxGeometry>
        </mxCell>
        <mxCell id="3Lb0dM-MbCXQ2RGb6Wp2-31" value="" style="edgeStyle=orthogonalEdgeStyle;html=1;verticalAlign=bottom;endArrow=open;endSize=8;strokeColor=#ff0000;rounded=0;" parent="1" edge="1">
          <mxGeometry relative="1" as="geometry">
            <mxPoint x="320.5" y="525" as="targetPoint" />
            <mxPoint x="320" y="425" as="sourcePoint" />
          </mxGeometry>
        </mxCell>
        <mxCell id="3Lb0dM-MbCXQ2RGb6Wp2-32" value="" style="edgeStyle=orthogonalEdgeStyle;html=1;verticalAlign=bottom;endArrow=open;endSize=8;strokeColor=#ff0000;rounded=0;" parent="1" edge="1">
          <mxGeometry relative="1" as="geometry">
            <mxPoint x="-240" y="419.5" as="targetPoint" />
            <mxPoint x="-170" y="419.5" as="sourcePoint" />
          </mxGeometry>
        </mxCell>
        <mxCell id="3Lb0dM-MbCXQ2RGb6Wp2-33" value="" style="edgeStyle=orthogonalEdgeStyle;html=1;verticalAlign=bottom;endArrow=open;endSize=8;strokeColor=#ff0000;rounded=0;" parent="1" edge="1">
          <mxGeometry relative="1" as="geometry">
            <mxPoint x="450" y="419.5" as="targetPoint" />
            <mxPoint x="360" y="419.5" as="sourcePoint" />
          </mxGeometry>
        </mxCell>
        <mxCell id="3Lb0dM-MbCXQ2RGb6Wp2-35" value="" style="ellipse;html=1;shape=endState;fillColor=#000000;strokeColor=#ff0000;" parent="1" vertex="1">
          <mxGeometry x="460" y="180" width="30" height="30" as="geometry" />
        </mxCell>
        <mxCell id="3Lb0dM-MbCXQ2RGb6Wp2-39" value="Вибір конкретної дії" style="rhombus;whiteSpace=wrap;html=1;fontColor=#000000;fillColor=#ffffc0;strokeColor=#ff0000;" parent="1" vertex="1">
          <mxGeometry x="10" y="320" width="134" height="60" as="geometry" />
        </mxCell>
        <mxCell id="3Lb0dM-MbCXQ2RGb6Wp2-40" value="no" style="edgeStyle=orthogonalEdgeStyle;html=1;align=left;verticalAlign=bottom;endArrow=open;endSize=8;strokeColor=#ff0000;rounded=0;entryX=0;entryY=0.5;entryDx=0;entryDy=0;" parent="1" source="3Lb0dM-MbCXQ2RGb6Wp2-39" edge="1" target="3Lb0dM-MbCXQ2RGb6Wp2-35">
          <mxGeometry x="-1" relative="1" as="geometry">
            <mxPoint x="240" y="350" as="targetPoint" />
          </mxGeometry>
        </mxCell>
        <mxCell id="3Lb0dM-MbCXQ2RGb6Wp2-41" value="yes" style="edgeStyle=orthogonalEdgeStyle;html=1;align=left;verticalAlign=top;endArrow=open;endSize=8;strokeColor=#ff0000;rounded=0;" parent="1" source="3Lb0dM-MbCXQ2RGb6Wp2-39" edge="1">
          <mxGeometry x="-1" relative="1" as="geometry">
            <mxPoint x="77" y="415" as="targetPoint" />
          </mxGeometry>
        </mxCell>
        <mxCell id="3Lb0dM-MbCXQ2RGb6Wp2-42" value="Вихід з адміністративного інтерфейсу" style="text;whiteSpace=wrap;html=1;" parent="1" vertex="1">
          <mxGeometry x="170" y="180" width="110" height="60" as="geometry" />
        </mxCell>
        <mxCell id="L5YKIjhaPQv5LIXdOwSn-1" value="" style="edgeStyle=orthogonalEdgeStyle;html=1;verticalAlign=bottom;endArrow=open;endSize=8;strokeColor=#ff0000;rounded=0;exitX=0.843;exitY=0.1;exitDx=0;exitDy=0;exitPerimeter=0;entryX=0.5;entryY=1;entryDx=0;entryDy=0;" edge="1" parent="1" source="3Lb0dM-MbCXQ2RGb6Wp2-8" target="3Lb0dM-MbCXQ2RGb6Wp2-35">
          <mxGeometry relative="1" as="geometry">
            <mxPoint x="440" y="349.5" as="targetPoint" />
            <mxPoint x="350" y="349.5" as="sourcePoint" />
            <Array as="points">
              <mxPoint x="284" y="400" />
              <mxPoint x="370" y="400" />
              <mxPoint x="370" y="313" />
              <mxPoint x="475" y="313" />
            </Array>
          </mxGeometry>
        </mxCell>
      </root>
    </mxGraphModel>
  </diagram>
</mxfile>
